<?xml version="1.0" encoding="UTF-8" standalone="no"?>
<svg
   xmlns:dc="http://purl.org/dc/elements/1.1/"
   xmlns:cc="http://creativecommons.org/ns#"
   xmlns:rdf="http://www.w3.org/1999/02/22-rdf-syntax-ns#"
   xmlns:svg="http://www.w3.org/2000/svg"
   xmlns="http://www.w3.org/2000/svg"
   xmlns:sodipodi="http://sodipodi.sourceforge.net/DTD/sodipodi-0.dtd"
   xmlns:inkscape="http://www.inkscape.org/namespaces/inkscape"
   version="1.1"
   viewBox="0 0 491.996 491.996"
   id="svg8"
   sodipodi:docname="up-arrow-simple.svg"
   inkscape:export-filename="/home/noc/Images/up-arrow-simple.svg.png"
   inkscape:export-xdpi="102"
   inkscape:export-ydpi="102"
   inkscape:version="0.92.3 (2405546, 2018-03-11)">
  <metadata
     id="metadata14">
    <rdf:RDF>
      <cc:Work
         rdf:about="">
        <dc:format>image/svg+xml</dc:format>
        <dc:type
           rdf:resource="http://purl.org/dc/dcmitype/StillImage" />
        <dc:title></dc:title>
      </cc:Work>
    </rdf:RDF>
  </metadata>
  <defs
     id="defs12" />
  <sodipodi:namedview
     pagecolor="#ffffff"
     bordercolor="#666666"
     borderopacity="1"
     objecttolerance="10"
     gridtolerance="10"
     guidetolerance="10"
     inkscape:pageopacity="0"
     inkscape:pageshadow="2"
     inkscape:window-width="1920"
     inkscape:window-height="1135"
     id="namedview10"
     showgrid="false"
     inkscape:zoom="0.47967869"
     inkscape:cx="653.56249"
     inkscape:cy="245.998"
     inkscape:window-x="0"
     inkscape:window-y="0"
     inkscape:window-maximized="1"
     inkscape:current-layer="svg8" />
  <g
     id="g6"
     transform="rotate(180,245.998,245.998)">
    <g
       id="g4">
      <path
         d="m 484.132,124.986 -16.116,-16.228 c -5.072,-5.068 -11.82,-7.86 -19.032,-7.86 -7.208,0 -13.964,2.792 -19.036,7.86 L 246.108,292.606 62.056,108.554 c -5.064,-5.068 -11.82,-7.856 -19.028,-7.856 -7.208,0 -13.968,2.788 -19.036,7.856 l -16.12,16.128 c -10.496,10.488 -10.496,27.572 0,38.06 l 219.136,219.924 c 5.064,5.064 11.812,8.632 19.084,8.632 h 0.084 c 7.212,0 13.96,-3.572 19.024,-8.632 L 484.132,163.338 c 5.072,-5.064 7.856,-12.016 7.864,-19.224 0,-7.212 -2.792,-14.068 -7.864,-19.128 z"
         id="path2"
         inkscape:connector-curvature="0"
         style="fill:#343a40" />
    </g>
  </g>
</svg>
